<svg width="566" height="90" viewBox="0 0 566 90" fill="none" xmlns="http://www.w3.org/2000/svg">
<circle cx="5" cy="5" r="5" fill="white"/>
<circle cx="73" cy="45" r="5" fill="white"/>
<circle cx="73" cy="85" r="5" fill="white"/>
<circle cx="39" cy="85" r="5" fill="white"/>
<circle cx="5" cy="85" r="5" fill="white"/>
<circle cx="5" cy="45" r="5" fill="white"/>
<circle cx="73" cy="5" r="5" fill="white"/>
<circle cx="39" cy="5" r="5" fill="white"/>
<circle cx="127" cy="5" r="5" fill="white"/>
<circle cx="195" cy="45" r="5" fill="white"/>
<circle cx="195" cy="85" r="5" fill="white"/>
<circle cx="161" cy="85" r="5" fill="white"/>
<circle cx="127" cy="85" r="5" fill="white"/>
<circle cx="127" cy="45" r="5" fill="white"/>
<circle cx="195" cy="5" r="5" fill="white"/>
<circle cx="161" cy="5" r="5" fill="white"/>
<circle cx="249" cy="5" r="5" fill="white"/>
<circle cx="317" cy="45" r="5" fill="white"/>
<circle cx="317" cy="85" r="5" fill="white"/>
<circle cx="283" cy="85" r="5" fill="white"/>
<circle cx="249" cy="85" r="5" fill="white"/>
<circle cx="249" cy="45" r="5" fill="white"/>
<circle cx="317" cy="5" r="5" fill="white"/>
<circle cx="283" cy="5" r="5" fill="white"/>
<circle cx="371" cy="5" r="5" fill="white"/>
<circle cx="439" cy="45" r="5" fill="white"/>
<circle cx="439" cy="85" r="5" fill="white"/>
<circle cx="405" cy="85" r="5" fill="white"/>
<circle cx="371" cy="85" r="5" fill="white"/>
<circle cx="371" cy="45" r="5" fill="white"/>
<circle cx="439" cy="5" r="5" fill="white"/>
<circle cx="405" cy="5" r="5" fill="white"/>
<circle cx="493" cy="5" r="5" fill="white"/>
<circle cx="561" cy="45" r="5" fill="white"/>
<circle cx="561" cy="85" r="5" fill="white"/>
<circle cx="527" cy="85" r="5" fill="white"/>
<circle cx="493" cy="85" r="5" fill="white"/>
<circle cx="493" cy="45" r="5" fill="white"/>
<circle cx="561" cy="5" r="5" fill="white"/>
<circle cx="527" cy="5" r="5" fill="white"/>
</svg>
